<svg xmlns="http://www.w3.org/2000/svg" xmlns:xlink="http://www.w3.org/1999/xlink" width="90" height="90" viewBox="0 0 90 90">
  <defs>
    <filter id="Ellipse_128" x="0" y="0" width="90" height="90" filterUnits="userSpaceOnUse">
      <feOffset dx="3" dy="3" input="SourceAlpha"/>
      <feGaussianBlur stdDeviation="5" result="blur"/>
      <feFlood flood-color="#25b4b2" flood-opacity="0.2"/>
      <feComposite operator="in" in2="blur"/>
      <feComposite in="SourceGraphic"/>
    </filter>
  </defs>
  <g id="help" transform="translate(12 12)">
    <g transform="matrix(1, 0, 0, 1, -12, -12)" filter="url(#Ellipse_128)">
      <circle id="Ellipse_128-2" data-name="Ellipse 128" cx="30" cy="30" r="30" transform="translate(12 12)" fill="#7bbbba"/>
    </g>
    <g id="danger" transform="translate(15.195 15.561)">
      <g id="Groupe_693" data-name="Groupe 693">
        <path id="Tracé_348" data-name="Tracé 348" d="M12.45,6A1.45,1.45,0,0,1,13.9,7.45v8.7a1.45,1.45,0,0,1-2.9,0V7.45A1.45,1.45,0,0,1,12.45,6Z" transform="translate(2.05 -0.2)" fill="#fff"/>
        <path id="Tracé_349" data-name="Tracé 349" d="M12.45,16a1.45,1.45,0,1,0,1.45,1.45A1.45,1.45,0,0,0,12.45,16Z" transform="translate(2.05 4.3)" fill="#fff"/>
        <path id="Tracé_350" data-name="Tracé 350" d="M16.5,2A14.5,14.5,0,1,0,31,16.5,14.5,14.5,0,0,0,16.5,2ZM4.9,16.5A11.6,11.6,0,1,0,16.5,4.9,11.6,11.6,0,0,0,4.9,16.5Z" transform="translate(-2 -2)" fill="#fff" fill-rule="evenodd"/>
      </g>
    </g>
  </g>
</svg>
